<svg xmlns="http://www.w3.org/2000/svg" width="170" height="28" viewBox="0 0 170 28">
    <g fill="none" fill-rule="evenodd">
        <g fill="#FFF">
            <g>
                <g fill-rule="nonzero">
                    <path d="M3.89.837L.133.837.133 19.453 9.965 19.453 9.965 16.074 3.89 16.074zM14.39.092c-.566-.013-1.112.203-1.514.6-.402.396-.625.938-.619 1.502-.015.87.499 1.663 1.3 2.005.802.343 1.732.167 2.352-.445.62-.611.807-1.537.474-2.34C16.049.608 15.26.086 14.389.091zM12.577 5.544H16.255V19.453H12.577zM29.978 7.007c-.4-.54-1.804-1.809-4.149-1.809-3.968 0-6.794 3.032-6.794 7.314s2.637 7.286 6.66 7.286c2.427 0 3.789-1.382 4.079-1.782v.64c0 2.16-1.84 2.764-3.838 2.764-1.378-.017-2.734-.344-3.968-.956l-1.12 2.819c1.577.821 3.327 1.257 5.106 1.27 4.103 0 7.487-1.675 7.487-6.86V5.543h-3.463v1.463zm-3.678 9.54c-2.078 0-3.571-1.62-3.571-4.07s1.466-4.04 3.544-4.04c2.164 0 3.598 1.674 3.598 4.04 0 2.481-1.439 4.078-3.57 4.078v-.008zM44.233 5.198c-1.484-.021-2.874.722-3.677 1.968V.225h-3.68v19.228h3.68v-8.35c0-1.49.986-2.607 2.525-2.607 1.252 0 2.318.958 2.318 2.5v8.46h3.65v-8.042c.007-2.945-.81-6.216-4.816-6.216zM56.492 13.894V8.523h2.612V5.544h-2.612V2.619h-3.625v2.925h-1.491v2.979h1.466V14c0 3.78 1.465 5.638 4.796 5.638.527.01 1.054-.033 1.573-.131v-3.14c-.222.022-.445.03-.668.027-1.412 0-2.05-.424-2.05-2.5zM65.658 7.565V5.544h-3.596v13.909h3.672v-6.06c0-2.766 1.014-4.467 3.759-4.467V5.198c-1.836 0-3.218.985-3.835 2.367zM80.688 13.894c0 1.49-.96 2.607-2.478 2.607-1.254 0-2.32-.958-2.32-2.5V5.54h-3.677v8.033c0 2.952.853 6.222 4.824 6.222 1.804 0 3.144-1.01 3.73-1.967v1.62h3.598V5.544h-3.677v8.35zM94.996 5.198c-1.498-.02-2.904.72-3.73 1.968v-1.62h-3.598v13.908h3.677v-8.352c0-1.488.96-2.606 2.478-2.606 1.252 0 2.318.958 2.318 2.5v8.46h3.681v-8.042c0-2.945-.856-6.216-4.826-6.216z" transform="translate(-61 -21) translate(61 21) translate(70 2.1)"/>
                </g>
                <path d="M66.5 5.882L65.219 8.527 58.374 8.488 51.405 12.704 54.686 12.761 36.333 27.3 44.239 16.31 39.594 16.141 46.228 7.183 34.351 15.269 38.329 20.026 25.996 14.619 29.479 11.07 21.533 9.795 12.427 11.233 0 7.522 12.317 8.441 34.454 3.126 51.59 3.237 61.32 0 61.32 1.899 63.589 2.802 64.182 4.109z" transform="translate(-61 -21) translate(61 21)"/>
            </g>
        </g>
    </g>
</svg>
