<svg width="171" height="29" viewBox="0 0 171 29" fill="none" xmlns="http://www.w3.org/2000/svg">
<path d="M74.0507 3.79297H70.2899V21.816H80.1316V18.545H74.0507V3.79297V3.79297Z" fill="#02053E"/>
<path d="M84.5604 3.07135C83.9949 3.05855 83.4482 3.26809 83.0458 3.65189C82.6434 4.03569 82.4198 4.56083 82.4264 5.10684C82.411 5.94919 82.9255 6.71669 83.7279 7.04826C84.5303 7.37983 85.4608 7.20945 86.0816 6.61728C86.7025 6.02511 86.8901 5.12906 86.5562 4.35066C86.2222 3.57227 85.4333 3.06653 84.5604 3.07135Z" fill="#02053E"/>
<rect x="82.746" y="8.3501" width="3.68137" height="13.4659" fill="#02053E"/>
<path fill-rule="evenodd" clip-rule="evenodd" d="M96.0127 8.01562C98.3598 8.01562 99.7645 9.24423 100.165 9.76704V8.35022H103.632V20.1117C103.632 25.1325 100.245 26.7549 96.1373 26.7549C94.3566 26.7412 92.6048 26.3195 91.0259 25.5246L92.1471 22.7955C93.3824 23.388 94.74 23.7043 96.1192 23.7209C98.1197 23.7209 99.9613 23.1353 99.9613 21.0441V20.4254C99.6706 20.8123 98.3074 22.1507 95.8791 22.1507C91.851 22.1507 89.2114 19.2421 89.2114 15.0962C89.2114 10.9503 92.0406 8.01562 96.0127 8.01562ZM92.909 15.0631C92.909 17.435 94.404 19.0034 96.4839 19.0034V19.0104C98.618 19.0104 100.059 17.4646 100.059 15.0631C100.059 12.7715 98.6234 11.1508 96.4568 11.1508C94.3769 11.1508 92.909 12.6913 92.909 15.0631Z" fill="#02053E"/>
<path d="M114.436 8.01529C112.95 7.99412 111.558 8.71421 110.754 9.92007V3.2002H107.071V21.8158H110.754V13.7314C110.754 12.2901 111.742 11.2079 113.282 11.2079C114.535 11.2079 115.602 12.135 115.602 13.6285V21.8193H119.256V14.0329C119.264 11.1818 118.446 8.01529 114.436 8.01529Z" fill="#02053E"/>
<path d="M126.708 16.4344V11.2341H129.322V8.34996H126.708V5.51807H123.079V8.34996H121.585V11.2341H123.053V16.5372C123.053 20.1969 124.519 21.9953 127.854 21.9953C128.382 22.0058 128.91 21.9631 129.428 21.8681V18.8289C129.206 18.8496 128.983 18.8583 128.76 18.855C127.347 18.855 126.708 18.4437 126.708 16.4344Z" fill="#02053E"/>
<path d="M135.883 10.3073V8.35022H132.283V21.8161H135.959V15.9502C135.959 13.2716 136.974 11.6248 139.722 11.6248V8.01562C137.884 8.01562 136.501 8.96888 135.883 10.3073Z" fill="#2AA6FD"/>
<path d="M150.928 16.4346C150.928 17.8775 149.968 18.958 148.447 18.958C147.193 18.958 146.126 18.0309 146.126 16.5374V8.34668H142.444V16.1244C142.444 18.9824 143.298 22.1489 147.274 22.1489C149.079 22.1489 150.421 21.1713 151.008 20.2441V21.8126H154.61V8.35017H150.928V16.4346Z" fill="#2AA6FD"/>
<path d="M165.251 8.01556C163.752 7.99513 162.345 8.71296 161.517 9.92034V8.3519H157.915V21.8178H161.597V13.7316C161.597 12.2904 162.557 11.2082 164.078 11.2082C165.331 11.2082 166.398 12.1353 166.398 13.6288V21.8195H170.083V14.0331C170.083 11.1821 169.225 8.01556 165.251 8.01556Z" fill="#2AA6FD"/>
<path fill-rule="evenodd" clip-rule="evenodd" d="M66.6526 6.6436L65.3699 9.2044L58.5184 9.16739L51.5415 13.2492L54.8265 13.3038L36.454 27.3803L44.3684 16.7405L39.719 16.5766L46.3597 7.90373L34.47 15.7324L38.4526 20.3376L26.1068 15.1032L29.5934 11.6665L21.639 10.4328L12.5237 11.8251L0.083374 8.23155L12.4128 9.12157L34.5735 3.9753L51.7268 4.0828L61.4672 0.949219V2.78742L63.7383 3.66159L64.3325 4.927L66.6526 6.6436V6.6436Z" fill="url(#paint0_linear)"/>
<defs>
<linearGradient id="paint0_linear" x1="0.76942" y1="21.3145" x2="67.188" y2="17.8665" gradientUnits="userSpaceOnUse">
<stop/>
<stop offset="0.503774" stop-color="#1C38B8"/>
<stop offset="1" stop-color="#51A2FF"/>
</linearGradient>
</defs>
</svg>
