<svg width="8" height="8" viewBox="-4 -4 22 22" fill="none" xmlns="http://www.w3.org/2000/svg">
<path d="M5.98706 11.9741C7.31543 11.9739 8.60551 11.5292 9.65189 10.7109L12.9418 14.0007L14 12.9425L10.7101 9.65264C11.5288 8.60615 11.9738 7.31577 11.9741 5.98706C11.9741 2.68595 9.28818 0 5.98706 0C2.68595 0 0 2.68595 0 5.98706C0 9.28818 2.68595 11.9741 5.98706 11.9741ZM5.98706 1.49677C8.46346 1.49677 10.4774 3.51066 10.4774 5.98706C10.4774 8.46346 8.46346 10.4774 5.98706 10.4774C3.51066 10.4774 1.49677 8.46346 1.49677 5.98706C1.49677 3.51066 3.51066 1.49677 5.98706 1.49677Z" fill="#797979"/>
</svg>
